<svg xmlns="http://www.w3.org/2000/svg" viewBox="0 0 64 64" fill="none">
  <defs>
    <linearGradient id="hydroGrad" x1="0%" y1="0%" x2="100%" y2="100%">
      <stop offset="0%" stop-color="#00E5FF"/>
      <stop offset="100%" stop-color="#10B981"/>
    </linearGradient>
    <filter id="glow" x="-20%" y="-20%" width="140%" height="140%">
      <feDropShadow dx="0" dy="0" stdDeviation="2.5" flood-color="#00E5FF" flood-opacity="0.7"/>
    </filter>
  </defs>
  <rect width="64" height="64" rx="16" fill="#060913" stroke="#00E5FF" stroke-width="2" stroke-opacity="0.4"/>
  <path d="M32 8 C32 8, 16 28, 16 41 C16 50.5 23.2 56 32 56 C40.8 56 48 50.5 48 41 C48 28, 32 8, 32 8 Z" fill="url(#hydroGrad)" filter="url(#glow)"/>
  <path d="M32 20 C32 20, 23 33, 23 42 C23 47 27 50.5 32 50.5 C37 50.5 41 47 41 42 C41 33, 32 20, 32 20 Z" fill="#060913" opacity="0.75"/>
  <circle cx="32" cy="42" r="3.5" fill="#00E5FF"/>
  <path d="M32 30 L32 36" stroke="#00E5FF" stroke-width="2" stroke-linecap="round"/>
  <path d="M28 42 L25 42" stroke="#10B981" stroke-width="1.8" stroke-linecap="round"/>
  <path d="M36 42 L39 42" stroke="#10B981" stroke-width="1.8" stroke-linecap="round"/>
</svg>
